<svg xmlns="http://www.w3.org/2000/svg" viewBox="0 0 32 32" role="img" aria-label="ReadTheMasters">
  <style>
    .rtm { fill: none; stroke: #7a4b2b; stroke-width: 1.7; stroke-linecap: round; stroke-linejoin: round; }
    @media (prefers-color-scheme: dark) { .rtm { stroke: #d69a6a; } }
  </style>
  <g class="rtm">
    <path d="M16 11.5 L16 25.5"/>
    <path d="M16 11.5 C12 9.5 7.5 10 4.5 12.5 L4.5 24 C7.5 21.5 12 22 16 24"/>
    <path d="M16 11.5 C20 9.5 24.5 10 27.5 12.5 L27.5 24 C24.5 21.5 20 22 16 24"/>
    <path d="M16 17 C14.4 14.8 10.8 14.8 10.8 17 C10.8 19.2 14.4 19.2 16 17 C17.6 14.8 21.2 14.8 21.2 17 C21.2 19.2 17.6 19.2 16 17 Z" stroke-width="1.5"/>
  </g>
</svg>
